<svg xmlns="http://www.w3.org/2000/svg" viewBox="0 0 240 240" width="240" height="240">
  <defs>
    <linearGradient id="bg-grad-n" x1="0" y1="0" x2="1" y2="1">
      <stop offset="0%" stop-color="#0d1117"/>
      <stop offset="100%" stop-color="#161b22"/>
    </linearGradient>
    <linearGradient id="shield-grad-n" x1="0" y1="0" x2="0" y2="1">
      <stop offset="0%" stop-color="#06b6d4"/>
      <stop offset="100%" stop-color="#7c3aed"/>
    </linearGradient>
    <linearGradient id="node-grad" x1="0" y1="0" x2="1" y2="1">
      <stop offset="0%" stop-color="#10b981"/>
      <stop offset="100%" stop-color="#06b6d4"/>
    </linearGradient>
    <filter id="glow-n">
      <feGaussianBlur stdDeviation="3" result="blur"/>
      <feMerge><feMergeNode in="blur"/><feMergeNode in="SourceGraphic"/></feMerge>
    </filter>
    <filter id="node-glow">
      <feGaussianBlur stdDeviation="4" result="blur"/>
      <feMerge><feMergeNode in="blur"/><feMergeNode in="SourceGraphic"/></feMerge>
    </filter>
  </defs>

  <!-- Background -->
  <rect width="240" height="240" rx="32" fill="url(#bg-grad-n)"/>

  <!-- Network connection lines (nodes to shield) -->
  <line x1="38" y1="58"  x2="90"  y2="90"  stroke="#10b981" stroke-width="1.5" opacity="0.5" stroke-dasharray="4 3"/>
  <line x1="202" y1="58" x2="150" y2="90"  stroke="#10b981" stroke-width="1.5" opacity="0.5" stroke-dasharray="4 3"/>
  <line x1="24"  y1="130" x2="75" y2="118" stroke="#10b981" stroke-width="1.5" opacity="0.5" stroke-dasharray="4 3"/>
  <line x1="216" y1="130" x2="165" y2="118" stroke="#10b981" stroke-width="1.5" opacity="0.5" stroke-dasharray="4 3"/>
  <line x1="60"  y1="196" x2="96" y2="168" stroke="#10b981" stroke-width="1.5" opacity="0.5" stroke-dasharray="4 3"/>
  <line x1="180" y1="196" x2="144" y2="168" stroke="#10b981" stroke-width="1.5" opacity="0.5" stroke-dasharray="4 3"/>

  <!-- Outer nodes -->
  <circle cx="38"  cy="58"  r="8" fill="url(#node-grad)" opacity="0.85" filter="url(#node-glow)"/>
  <circle cx="202" cy="58"  r="8" fill="url(#node-grad)" opacity="0.85" filter="url(#node-glow)"/>
  <circle cx="24"  cy="130" r="8" fill="url(#node-grad)" opacity="0.85" filter="url(#node-glow)"/>
  <circle cx="216" cy="130" r="8" fill="url(#node-grad)" opacity="0.85" filter="url(#node-glow)"/>
  <circle cx="60"  cy="196" r="8" fill="url(#node-grad)" opacity="0.85" filter="url(#node-glow)"/>
  <circle cx="180" cy="196" r="8" fill="url(#node-grad)" opacity="0.85" filter="url(#node-glow)"/>

  <!-- Shield shape (slightly smaller than standalone version) -->
  <path d="M120 36 L170 57 L170 112 Q170 154 120 182 Q70 154 70 112 L70 57 Z"
        fill="url(#shield-grad-n)" opacity="0.15"/>
  <path d="M120 36 L170 57 L170 112 Q170 154 120 182 Q70 154 70 112 L70 57 Z"
        fill="none" stroke="url(#shield-grad-n)" stroke-width="3" filter="url(#glow-n)"/>

  <!-- Qubic symbol — centered in shield (scale 1.4, origin 98/74) -->
  <g transform="translate(98, 74) scale(1.4)" filter="url(#glow-n)">
    <path fill="#23FFFF" d="M11.308 0H1.615C.723 0 0 .724 0 1.616v35.538c0 .892.723 1.616 1.615 1.616h9.693c.892 0 1.615-.724 1.615-1.616V1.616C12.923.724 12.2 0 11.308 0Z"/>
    <path fill="#23FFFF" d="M28.538 0h-9.692c-.892 0-1.616.723-1.616 1.615v48.462c0 .892.724 1.615 1.616 1.615h9.692c.892 0 1.616-.723 1.616-1.615V1.615C30.154.723 29.43 0 28.538 0Z"/>
  </g>

</svg>
